<?xml version="1.0" standalone="no"?>
<!DOCTYPE svg PUBLIC "-//W3C//DTD SVG 20010904//EN"
 "http://www.w3.org/TR/2001/REC-SVG-20010904/DTD/svg10.dtd">
<svg version="1.0" xmlns="http://www.w3.org/2000/svg"
 width="3780.000000pt" height="720.000000pt" viewBox="0 0 3780.000000 720.000000"
 preserveAspectRatio="xMidYMid meet">

<g transform="translate(0.000000,720.000000) scale(0.100000,-0.100000)"
fill="#000000" stroke="none">
<path d="M4446 6553 c38 -165 171 -262 439 -322 242 -54 300 -71 354 -107 115
-77 182 -174 189 -275 17 -232 -262 -398 -734 -437 -155 -13 -225 -1 -304 52
-85 57 -95 62 -162 75 -73 15 -151 2 -268 -45 -76 -31 -100 -36 -230 -44 -179
-12 -219 -22 -266 -69 -42 -42 -67 -93 -117 -243 -48 -143 -66 -262 -46 -303
8 -17 22 -29 31 -29 21 2 17 -9 -50 -126 -67 -115 -102 -184 -102 -199 0 -8
70 -11 235 -11 l235 0 31 43 c17 23 65 100 107 171 118 198 184 261 299 285
105 22 321 -40 373 -106 11 -14 19 -31 17 -37 -7 -22 -75 -27 -201 -13 -143
15 -211 9 -258 -25 -38 -27 -35 -42 12 -63 40 -18 125 -18 250 1 l45 7 -20
-22 c-29 -33 -76 -50 -215 -77 -142 -28 -172 -37 -218 -72 -64 -47 -73 -72
-70 -208 2 -100 0 -127 -16 -162 -11 -24 -24 -41 -30 -39 -6 2 -30 43 -54 91
-61 123 -66 125 -338 129 -260 3 -277 0 -298 -53 -21 -52 -20 -85 2 -122 19
-33 85 -70 147 -84 22 -5 285 -9 585 -9 424 0 554 -3 583 -13 28 -10 83 -59
205 -184 185 -189 207 -215 190 -235 -17 -21 -60 -15 -113 17 -47 27 -79 55
-227 196 l-60 57 -181 -7 c-282 -12 -863 -15 -952 -6 -179 19 -250 44 -304
106 -60 68 -75 116 -76 239 0 121 11 155 80 240 37 45 71 107 81 148 6 27 5
28 -22 21 -188 -46 -410 -211 -526 -389 -114 -177 -202 -423 -225 -631 -8 -67
-9 -70 -45 -87 -21 -10 -99 -30 -175 -43 -185 -34 -243 -53 -365 -120 -307
-170 -417 -281 -593 -599 -112 -204 -169 -255 -282 -255 -69 0 -78 5 -98 53
-36 88 -13 150 105 281 103 113 147 201 156 308 11 132 -37 223 -143 274 -53
24 -70 27 -244 34 -180 7 -191 9 -246 36 -32 16 -62 31 -67 33 -13 5 1 -134
19 -189 22 -66 67 -115 138 -150 95 -46 136 -48 245 -11 61 21 107 31 135 29
l42 -3 -2 -48 c-2 -61 -30 -108 -136 -225 -96 -105 -134 -173 -149 -264 -34
-200 142 -344 348 -283 102 30 179 113 294 319 35 61 83 143 108 181 55 83
180 210 241 244 l44 24 -7 -43 c-4 -24 -20 -100 -37 -169 -82 -344 -172 -515
-328 -620 -59 -40 -181 -90 -269 -111 -61 -14 -76 -31 -126 -146 -18 -44 -55
-124 -81 -179 -110 -232 -139 -294 -171 -373 -19 -46 -34 -87 -34 -93 0 -5 94
-9 235 -9 l235 0 -6 218 c-7 231 -1 279 47 373 l18 37 113 7 c224 13 412 60
569 141 173 89 300 210 434 409 42 63 85 119 94 125 22 11 80 -2 123 -28 46
-29 85 -72 163 -182 115 -163 136 -178 293 -211 101 -22 442 -40 442 -24 0 5
-24 94 -54 199 -105 369 -140 538 -134 664 3 92 16 112 69 112 70 0 129 -108
183 -335 53 -220 53 -219 108 -360 85 -216 145 -321 222 -384 71 -58 182 -170
222 -224 47 -63 84 -164 84 -226 0 -49 -35 -173 -69 -244 -15 -31 -25 -59 -23
-62 9 -9 752 -5 752 3 0 5 -104 213 -230 463 -486 958 -495 978 -482 991 20
20 142 -5 222 -45 85 -44 140 -84 302 -224 70 -60 148 -119 174 -132 62 -31
117 -31 151 0 14 13 130 146 258 294 254 295 381 425 414 425 23 0 46 -31 55
-75 9 -42 -28 -179 -63 -234 -39 -60 -167 -186 -256 -252 -89 -66 -125 -99
-125 -116 0 -26 82 -101 148 -136 37 -19 128 -54 202 -77 373 -116 543 -262
610 -526 15 -59 20 -110 20 -216 l0 -138 321 0 320 0 -6 23 c-12 37 -158 314
-350 662 -94 169 -178 312 -385 655 -128 212 -303 502 -390 645 -86 143 -263
436 -393 650 -129 215 -301 498 -380 630 -80 132 -143 243 -141 247 3 5 27 8
54 8 79 0 366 39 485 66 133 31 242 73 312 121 59 40 155 138 203 208 75 109
130 266 130 375 0 131 -70 290 -175 396 -123 126 -265 178 -580 214 -341 40
-480 82 -584 175 -46 42 -53 43 -45 8z"/>
<path d="M2435 5883 c-10 -53 -38 -104 -116 -214 -96 -134 -119 -187 -119
-275 0 -56 5 -81 26 -122 50 -100 188 -194 367 -248 96 -29 315 -64 404 -64
l61 0 16 43 c22 61 86 254 86 260 0 2 -62 7 -137 11 -159 7 -314 28 -393 52
-56 16 -150 62 -182 87 -31 25 -23 103 22 222 47 124 51 180 17 239 -29 52
-43 55 -52 9z"/>
<path d="M29010 5404 c-173 -139 -194 -169 -152 -207 38 -35 72 -17 252 135
80 68 94 96 64 129 -32 35 -64 24 -164 -57z"/>
<path d="M7913 5355 c-160 -44 -278 -155 -341 -323 -20 -56 -26 -91 -30 -206
-5 -159 4 -219 51 -316 40 -82 133 -177 208 -214 225 -109 533 -76 673 73 39
42 46 56 46 90 0 32 -6 44 -31 65 -47 40 -78 34 -145 -24 -70 -61 -133 -82
-246 -82 -128 1 -190 20 -265 80 -90 71 -126 194 -106 370 12 103 38 165 98
227 64 65 125 90 220 90 148 0 241 -52 269 -149 20 -69 42 -88 96 -84 66 5 83
35 88 153 5 119 -3 179 -31 211 -30 35 -87 37 -121 5 l-24 -22 -38 19 c-102
52 -258 67 -371 37z"/>
<path d="M13433 5355 c-160 -44 -278 -155 -341 -323 -20 -56 -26 -91 -30 -206
-5 -159 4 -219 51 -316 40 -82 133 -177 208 -214 225 -109 533 -76 673 73 39
42 46 56 46 90 0 32 -6 44 -31 65 -47 40 -78 34 -145 -24 -70 -61 -133 -82
-246 -82 -128 1 -190 20 -265 80 -90 71 -126 194 -106 370 12 103 38 165 98
227 64 65 125 90 220 90 148 0 241 -52 269 -149 20 -69 42 -88 96 -84 66 5 83
35 88 153 5 119 -3 179 -31 211 -30 35 -87 37 -121 5 l-24 -22 -38 19 c-102
52 -258 67 -371 37z"/>
<path d="M20034 5352 c-179 -64 -320 -225 -360 -411 -51 -241 42 -496 225
-619 33 -22 66 -42 73 -45 8 -3 -13 -31 -54 -73 -93 -95 -104 -136 -51 -189
31 -31 55 -31 170 -4 118 28 211 28 293 0 91 -31 164 -29 240 5 113 51 150
125 91 185 -37 37 -62 37 -131 -1 -67 -36 -77 -36 -165 -5 -38 13 -88 25 -110
25 -46 1 -41 4 71 40 121 38 241 144 303 268 56 111 75 279 47 413 -35 162
-151 311 -299 384 -73 36 -85 39 -185 42 -85 3 -118 0 -158 -15z m271 -196
c177 -87 252 -343 159 -540 -31 -65 -115 -149 -180 -177 -68 -30 -160 -28
-227 5 -152 74 -235 245 -207 424 15 93 50 163 112 226 99 98 222 121 343 62z"/>
<path d="M27796 5359 c-122 -30 -267 -152 -331 -278 -116 -231 -74 -521 101
-695 108 -108 253 -165 389 -153 217 21 413 202 461 426 30 143 9 318 -53 434
-44 83 -155 187 -247 233 -74 36 -85 39 -180 41 -56 1 -118 -2 -140 -8z m249
-204 c222 -108 270 -459 87 -642 -92 -91 -221 -121 -326 -74 -65 28 -149 112
-181 178 -65 139 -46 328 46 444 95 120 244 158 374 94z"/>
<path d="M29988 5355 c-276 -76 -355 -403 -134 -554 55 -38 134 -64 288 -97
143 -30 203 -55 223 -95 31 -58 16 -105 -44 -143 -111 -71 -314 -61 -409 19
-16 13 -35 42 -42 65 -27 81 -106 104 -157 45 -21 -24 -23 -36 -23 -151 0
-125 0 -126 29 -155 35 -34 77 -38 113 -10 25 20 25 20 114 -12 80 -28 100
-31 199 -31 87 1 124 5 175 23 166 58 242 150 242 296 0 94 -28 161 -94 220
-58 52 -112 74 -273 109 -195 44 -220 52 -254 91 -65 74 -22 164 93 200 68 20
125 19 190 -5 66 -25 108 -69 126 -135 11 -39 19 -50 47 -61 41 -17 74 -10
105 23 22 23 23 32 23 153 0 115 -2 131 -21 157 -25 34 -82 43 -120 18 -21
-14 -27 -14 -46 -1 -69 44 -247 60 -350 31z"/>
<path d="M8786 5340 c-47 -15 -66 -39 -66 -85 0 -68 29 -87 143 -94 l93 -6
-144 -356 -144 -357 -40 -5 c-56 -7 -83 -36 -83 -88 0 -33 6 -46 29 -66 28
-24 29 -24 223 -21 191 3 195 3 214 27 22 26 25 87 6 112 -20 26 -53 39 -102
39 -43 0 -46 1 -39 23 17 54 44 95 61 92 10 -2 109 -4 220 -4 l203 -1 14 -33
c32 -78 32 -77 -19 -77 -75 0 -114 -30 -115 -87 -1 -84 23 -93 248 -93 166 0
181 2 206 21 l26 20 26 -20 c25 -20 40 -21 221 -21 196 0 223 4 250 39 20 25
16 84 -7 109 -23 25 -43 31 -115 34 l-50 3 -3 113 -3 112 99 0 c93 0 101 -2
138 -28 62 -46 173 -171 249 -281 l70 -101 93 2 c86 3 95 5 114 28 18 22 21
23 31 9 25 -34 55 -39 227 -39 173 0 201 5 227 39 20 25 16 84 -7 109 -23 25
-43 31 -115 34 l-50 3 -3 275 c-2 235 0 272 12 260 7 -8 66 -98 131 -200 64
-102 165 -260 224 -352 l106 -168 93 0 92 0 0 448 0 449 40 12 c46 14 70 43
70 86 0 42 -24 72 -68 84 -20 6 -107 10 -194 8 -141 -2 -159 -4 -185 -23 -22
-17 -29 -30 -31 -65 -4 -65 25 -90 115 -96 l68 -5 0 -269 c0 -148 -2 -269 -5
-269 -3 0 -108 164 -235 363 l-230 362 -90 3 c-184 7 -245 -17 -245 -93 0 -51
34 -82 99 -91 l51 -7 0 -357 0 -358 -35 -6 c-19 -4 -44 -16 -55 -28 l-19 -21
-19 22 c-12 16 -32 25 -64 28 -45 5 -48 8 -102 87 -30 46 -83 110 -117 145
-34 34 -60 63 -58 65 2 1 20 13 39 26 107 72 154 149 154 256 -1 169 -127 296
-319 322 -98 14 -507 15 -554 2 -60 -16 -89 -78 -60 -132 13 -24 67 -48 109
-48 l30 0 0 -359 0 -358 -50 -5 c-28 -3 -59 -13 -70 -23 -19 -17 -21 -17 -39
-1 -11 10 -37 20 -59 23 l-40 5 -184 454 -183 454 -210 -1 c-115 0 -223 -5
-239 -9z m1569 -191 c22 -6 56 -28 77 -49 72 -71 45 -149 -71 -204 -61 -29
-75 -31 -193 -34 l-128 -4 0 151 0 151 138 0 c75 0 155 -5 177 -11z m-1146
-228 c39 -96 71 -175 71 -177 0 -2 -66 -4 -146 -4 -135 0 -146 1 -140 18 25
65 140 341 142 339 1 -1 34 -80 73 -176z"/>
<path d="M12119 5343 c-69 -11 -95 -101 -45 -152 25 -25 32 -26 151 -30 l125
-3 0 -359 0 -359 -115 0 c-132 0 -167 -11 -184 -61 -14 -41 8 -95 45 -109 17
-7 151 -10 367 -8 l339 3 19 24 c19 23 25 74 13 106 -13 33 -59 45 -179 45
l-115 0 0 359 0 359 124 3 c116 4 126 6 151 29 22 20 25 32 23 69 -2 35 -9 48
-31 65 -27 20 -40 21 -345 22 -174 1 -329 0 -343 -3z"/>
<path d="M14225 5345 c-5 -2 -22 -6 -37 -9 -29 -7 -58 -49 -58 -86 0 -50 54
-90 121 -90 l29 0 0 -359 0 -358 -52 -5 c-93 -9 -129 -88 -69 -149 l29 -29
467 0 466 0 -3 174 c-3 169 -4 175 -27 200 -18 19 -35 26 -63 26 -54 0 -87
-34 -90 -92 -1 -45 -4 -94 -7 -116 -1 -10 -51 -12 -231 -10 l-230 3 -3 133 -2
132 83 0 82 0 0 -38 c0 -21 7 -47 15 -60 20 -28 71 -42 108 -29 49 16 57 49
57 226 0 157 0 160 -26 190 -20 24 -34 31 -62 31 -57 -1 -92 -38 -92 -99 l0
-31 -80 0 c-57 0 -80 4 -81 13 -1 9 0 209 1 240 0 4 95 7 210 7 116 0 210 -3
211 -7 0 -5 3 -39 5 -78 5 -88 25 -119 79 -123 49 -4 81 13 95 51 5 16 10 101
10 188 l0 159 -422 -1 c-233 0 -427 -2 -433 -4z"/>
<path d="M15303 5339 c-55 -16 -80 -79 -52 -131 13 -24 67 -48 109 -48 l30 0
0 -359 0 -358 -52 -5 c-93 -9 -129 -88 -69 -149 l29 -29 197 0 c198 0 225 4
252 39 20 25 16 84 -7 109 -23 25 -43 31 -115 34 l-50 3 -3 113 -3 112 99 0
c93 0 101 -2 138 -29 78 -56 238 -244 301 -352 l18 -31 93 4 c84 3 96 5 113
27 24 30 25 92 1 121 -12 15 -33 24 -64 27 -45 5 -48 8 -102 87 -30 45 -83
110 -116 145 -34 34 -60 64 -58 65 1 1 19 13 38 26 107 71 154 149 153 255 0
88 -27 152 -90 217 -61 62 -137 95 -249 108 -109 12 -497 12 -541 -1z m582
-190 c22 -6 56 -28 77 -49 72 -71 45 -149 -71 -204 -61 -29 -75 -31 -193 -34
l-128 -4 0 151 0 151 138 0 c75 0 155 -5 177 -11z"/>
<path d="M16534 5343 c-65 -13 -88 -104 -40 -152 25 -25 32 -26 151 -30 l125
-3 0 -359 0 -359 -115 0 c-132 0 -167 -11 -184 -61 -14 -41 8 -95 45 -109 17
-7 151 -10 367 -8 l339 3 19 24 c22 26 25 87 6 112 -24 32 -56 39 -171 39
l-116 0 0 359 0 359 124 3 c116 4 126 6 151 29 22 20 25 32 23 69 -2 35 -9 48
-31 65 -27 20 -40 21 -350 22 -177 1 -332 0 -343 -3z"/>
<path d="M17630 5343 c-69 -13 -96 -105 -45 -153 22 -21 38 -25 119 -28 l93
-4 -143 -356 c-79 -195 -144 -356 -144 -357 0 -1 -19 -5 -41 -8 -57 -7 -84
-36 -84 -88 0 -33 6 -46 29 -66 28 -24 29 -24 223 -21 191 3 195 3 214 27 22
26 25 87 6 112 -20 26 -53 39 -101 39 -25 0 -46 3 -46 6 0 3 10 28 21 55 l21
49 204 1 c112 1 212 2 221 3 17 1 40 -36 57 -91 7 -22 4 -23 -39 -23 -49 0
-82 -13 -102 -39 -16 -21 -16 -81 0 -102 26 -34 54 -39 236 -39 175 0 181 1
208 24 61 53 21 156 -61 156 l-33 0 -184 455 -184 455 -210 -2 c-115 0 -221
-3 -235 -5z m415 -413 c37 -91 70 -171 72 -177 4 -10 -28 -13 -142 -13 -136 0
-147 1 -141 18 21 56 140 341 142 339 1 -1 32 -76 69 -167z"/>
<path d="M20829 5342 c-15 -1 -37 -14 -50 -28 -48 -51 -16 -136 57 -150 l33
-6 3 -317 c3 -364 3 -361 105 -472 163 -176 444 -182 609 -13 108 110 125 189
123 551 0 133 2 247 6 252 3 6 17 11 31 11 29 0 61 30 70 66 10 38 -19 92 -53
101 -15 5 -105 8 -199 8 -158 0 -174 -2 -194 -20 -33 -30 -42 -62 -29 -102 14
-42 56 -63 129 -63 l50 0 0 -294 0 -294 -32 -48 c-72 -105 -211 -138 -320 -77
-30 17 -66 48 -83 72 l-30 43 -3 299 -3 299 43 0 c75 0 117 17 135 55 27 57 1
110 -62 126 -37 8 -276 10 -336 1z"/>
<path d="M22054 5343 c-65 -13 -88 -104 -40 -152 25 -25 32 -26 151 -30 l125
-3 0 -359 0 -359 -115 0 c-132 0 -167 -11 -184 -61 -14 -41 8 -95 45 -109 17
-7 151 -10 367 -8 l339 3 19 24 c22 26 25 87 6 112 -24 32 -56 39 -171 39
l-116 0 0 359 0 359 124 3 c116 4 126 6 151 29 22 20 25 32 23 69 -2 35 -9 48
-31 65 -27 20 -40 21 -350 22 -177 1 -332 0 -343 -3z"/>
<path d="M22993 5339 c-55 -16 -80 -79 -52 -131 13 -24 67 -48 109 -48 l30 0
0 -359 0 -359 -35 -6 c-47 -9 -75 -41 -75 -85 1 -80 31 -91 240 -91 173 0 201
5 227 39 20 25 16 84 -7 109 -23 25 -43 31 -115 34 l-50 3 -3 273 c-1 150 1
271 5 269 5 -3 112 -168 238 -366 l230 -361 93 0 92 0 0 450 0 449 40 11 c46
12 70 42 70 86 0 40 -26 72 -66 83 -46 13 -297 14 -343 1 -48 -13 -71 -42 -71
-90 0 -56 33 -81 114 -87 36 -3 66 -8 66 -12 0 -3 1 -124 3 -269 1 -144 0
-262 -3 -262 -3 0 -108 164 -235 363 l-230 362 -120 2 c-66 1 -134 -3 -152 -8z"/>
<path d="M24120 5146 c0 -113 4 -216 10 -231 10 -28 63 -56 89 -48 71 22 81
44 81 183 l0 110 100 0 100 0 0 -360 0 -360 -85 0 c-100 0 -138 -15 -154 -61
-14 -41 8 -95 44 -109 15 -6 141 -10 295 -10 l268 0 31 26 c39 33 42 80 7 121
-23 26 -30 28 -123 33 l-98 5 -3 358 -2 357 105 0 105 0 0 -120 c0 -115 1
-122 25 -145 43 -44 119 -32 144 22 7 15 11 100 11 228 l0 205 -475 0 -475 0
0 -204z"/>
<path d="M25275 5345 c-5 -2 -22 -6 -37 -9 -58 -13 -75 -116 -25 -151 11 -8
43 -18 69 -21 l48 -7 0 -357 0 -357 -52 -5 c-93 -9 -129 -88 -69 -149 l29 -29
467 0 466 0 -3 174 c-3 169 -4 175 -27 200 -18 19 -35 26 -63 26 -54 0 -87
-34 -90 -92 -3 -73 -5 -103 -6 -116 -2 -10 -52 -12 -233 -10 l-231 3 -1 130 0
130 81 3 82 3 0 -41 c0 -56 34 -90 88 -90 24 0 49 8 63 19 24 19 24 22 24 199
0 177 0 181 -24 206 -18 19 -34 26 -60 26 -56 -1 -91 -39 -91 -100 l0 -31 -82
3 -81 3 0 125 1 125 215 3 215 2 -1 -42 c-1 -92 3 -117 26 -143 40 -47 126
-31 147 28 5 16 10 101 10 188 l0 159 -422 -1 c-233 0 -427 -2 -433 -4z"/>
<path d="M26343 5339 c-55 -16 -80 -79 -52 -131 13 -24 67 -48 109 -48 l30 0
0 -359 0 -358 -52 -5 c-93 -9 -129 -88 -69 -149 l29 -29 197 0 c198 0 225 4
252 39 20 25 16 84 -7 109 -23 25 -43 31 -115 34 l-50 3 -3 113 -3 112 99 0
c93 0 101 -2 138 -29 78 -56 238 -244 301 -352 l18 -31 93 4 c84 3 96 5 113
27 24 30 25 92 1 121 -12 15 -33 24 -64 27 -45 5 -48 8 -102 87 -30 45 -83
110 -116 145 -34 34 -60 64 -58 65 1 1 19 13 38 26 107 71 154 149 153 255 0
88 -27 152 -90 217 -61 62 -137 95 -249 108 -109 12 -497 12 -541 -1z m582
-190 c22 -6 56 -28 77 -49 72 -71 45 -149 -71 -204 -61 -29 -75 -31 -193 -34
l-128 -4 0 151 0 151 138 0 c75 0 155 -5 177 -11z"/>
<path d="M11538 2844 c-74 -23 -132 -91 -140 -164 -3 -31 0 -35 22 -37 47 -4
67 6 73 35 14 70 88 109 176 92 62 -11 94 -47 94 -104 0 -79 -45 -123 -133
-130 -55 -4 -55 -4 -58 -40 -2 -20 0 -36 5 -37 4 0 31 -3 58 -5 105 -10 161
-66 152 -153 -9 -81 -60 -122 -150 -122 -93 0 -152 40 -163 113 -6 37 -8 38
-49 38 -23 0 -44 -2 -47 -5 -11 -12 14 -101 38 -137 75 -108 294 -125 404 -31
110 94 77 296 -53 328 -33 9 -35 21 -4 30 75 24 119 135 86 222 -36 97 -182
147 -311 107z"/>
<path d="M12165 2846 c-22 -7 -50 -19 -63 -27 -56 -35 -110 -162 -72 -172 9
-2 29 -3 44 -3 23 2 31 9 41 40 7 20 21 46 30 56 16 18 71 35 103 33 6 0 25
-1 41 -2 38 -1 87 -43 94 -80 8 -40 -8 -93 -39 -122 -20 -18 -40 -25 -87 -29
l-62 -5 -3 -37 c-2 -21 0 -38 5 -39 155 -11 200 -40 210 -132 9 -87 -54 -150
-150 -149 -94 1 -152 42 -163 114 -6 37 -7 38 -50 38 -23 0 -45 -4 -48 -8 -9
-15 15 -97 39 -134 71 -108 294 -125 405 -31 107 92 81 279 -45 324 -19 7 -35
15 -35 19 0 3 17 14 37 25 51 28 75 65 81 123 5 62 -10 111 -47 146 -58 55
-182 80 -266 52z"/>
<path d="M13033 2845 c-54 -16 -80 -34 -110 -77 -29 -43 -47 -115 -29 -121 9
-3 58 -2 77 2 4 0 9 13 12 29 14 72 90 110 177 91 25 -6 55 -19 66 -30 68 -63
10 -199 -84 -199 -70 0 -83 -8 -80 -49 3 -36 3 -36 52 -38 66 -3 112 -20 136
-50 42 -54 35 -146 -15 -193 -27 -26 -106 -38 -169 -26 -48 9 -94 58 -102 107
-6 38 -7 39 -49 39 -23 0 -44 -2 -47 -5 -11 -11 13 -101 37 -136 74 -112 309
-126 410 -24 104 103 70 288 -58 320 -36 9 -34 16 10 40 20 11 45 32 56 47 24
33 33 114 18 161 -32 97 -179 150 -308 112z"/>
<path d="M14279 2844 c-68 -21 -122 -84 -151 -176 -32 -103 -32 -282 -1 -383
26 -81 76 -148 132 -171 84 -37 211 -14 267 48 91 100 117 355 55 534 -47 131
-166 190 -302 148z m151 -93 c14 -9 36 -39 50 -67 23 -46 25 -59 25 -204 0
-127 -3 -164 -18 -203 -25 -64 -69 -97 -131 -97 -100 0 -148 96 -149 294 0
127 19 207 59 255 42 50 109 59 164 22z"/>
<path d="M15810 2851 c-112 -34 -174 -119 -200 -271 -23 -138 1 -293 60 -381
84 -128 302 -140 399 -23 36 44 51 95 51 171 0 189 -201 282 -374 173 l-46
-30 0 23 c0 49 23 144 43 180 30 53 75 79 139 79 60 -1 96 -22 117 -70 14 -30
18 -32 63 -32 55 0 55 3 21 78 -38 82 -174 133 -273 103z m156 -387 c37 -25
54 -66 54 -131 0 -99 -50 -155 -138 -155 -93 0 -151 56 -174 166 -11 56 -10
59 13 78 70 56 191 77 245 42z"/>
<path d="M16430 2851 c-114 -37 -174 -119 -200 -271 -23 -136 1 -290 59 -381
78 -124 299 -140 395 -28 40 47 56 97 56 176 0 190 -201 283 -374 172 l-46
-29 0 23 c0 49 23 144 43 180 30 53 75 79 139 79 60 -1 96 -22 117 -70 14 -30
18 -32 63 -32 26 0 48 2 48 4 0 1 -5 18 -11 37 -18 51 -56 97 -100 120 -44 22
-149 33 -189 20z m165 -391 c30 -25 45 -68 45 -127 0 -99 -49 -154 -138 -155
-93 0 -151 55 -174 166 -11 56 -10 59 13 78 79 62 202 81 254 38z"/>
<path d="M17650 2849 c-90 -18 -169 -105 -170 -186 0 -32 1 -33 43 -33 42 0
42 1 60 51 24 66 60 89 141 89 53 0 61 -3 93 -35 34 -34 35 -37 31 -103 -5
-91 -30 -125 -228 -307 -156 -143 -161 -149 -158 -184 l3 -36 241 -3 c216 -3
243 -1 258 14 10 9 15 23 12 31 -3 8 -6 21 -6 29 0 12 -32 14 -187 14 l-188 1
80 71 c235 211 280 276 273 397 -4 85 -36 139 -100 169 -52 25 -137 34 -198
21z"/>
<path d="M20738 2844 c-74 -23 -132 -91 -140 -164 -3 -31 0 -35 22 -37 47 -4
67 6 73 35 14 70 88 109 176 92 62 -11 94 -47 94 -104 0 -79 -45 -123 -133
-130 -55 -4 -55 -4 -58 -40 -2 -20 0 -36 5 -37 4 0 31 -3 58 -5 105 -10 161
-66 152 -153 -9 -81 -60 -122 -150 -122 -93 0 -152 40 -163 113 -6 37 -8 38
-49 38 -23 0 -44 -2 -47 -5 -11 -12 14 -101 38 -137 75 -108 294 -125 404 -31
110 94 77 296 -53 328 -33 9 -35 21 -4 30 75 24 119 135 86 222 -36 97 -182
147 -311 107z"/>
<path d="M21365 2846 c-22 -7 -50 -19 -63 -27 -56 -35 -110 -162 -72 -172 9
-2 29 -3 44 -3 23 2 31 9 41 40 7 20 21 46 30 56 16 18 71 35 103 33 6 0 25
-1 41 -2 38 -1 87 -43 94 -80 8 -40 -8 -93 -39 -122 -20 -18 -40 -25 -87 -29
l-62 -5 -3 -37 c-2 -21 0 -38 5 -39 155 -11 200 -40 210 -132 9 -87 -54 -150
-150 -149 -94 1 -152 42 -163 114 -6 37 -7 38 -50 38 -23 0 -45 -4 -48 -8 -9
-15 15 -97 39 -134 71 -108 294 -125 405 -31 107 92 81 279 -45 324 -19 7 -35
15 -35 19 0 3 17 14 37 25 51 28 75 65 81 123 5 62 -10 111 -47 146 -58 55
-182 80 -266 52z"/>
<path d="M22233 2845 c-54 -16 -80 -34 -110 -77 -29 -43 -47 -115 -29 -121 9
-3 58 -2 77 2 4 0 9 13 12 29 14 72 90 110 177 91 25 -6 55 -19 66 -30 68 -63
10 -199 -84 -199 -70 0 -83 -8 -80 -49 3 -36 3 -36 52 -38 66 -3 112 -20 136
-50 42 -54 35 -146 -15 -193 -27 -26 -106 -38 -169 -26 -48 9 -94 58 -102 107
-6 38 -7 39 -49 39 -23 0 -44 -2 -47 -5 -11 -11 13 -101 37 -136 74 -112 309
-126 410 -24 104 103 70 288 -58 320 -36 9 -34 16 10 40 20 11 45 32 56 47 24
33 33 114 18 161 -32 97 -179 150 -308 112z"/>
<path d="M22858 2847 c-26 -8 -62 -25 -81 -40 -39 -30 -77 -102 -77 -147 0
-29 2 -30 43 -30 42 0 42 1 60 51 24 66 60 89 141 89 53 0 61 -3 93 -35 34
-34 35 -37 31 -103 -5 -91 -30 -125 -228 -307 -156 -143 -161 -149 -158 -184
l3 -36 254 0 c246 0 254 1 258 20 1 11 1 30 -2 43 -5 22 -7 22 -193 22 l-187
1 80 71 c235 211 280 276 273 397 -4 86 -36 139 -101 170 -56 27 -148 35 -209
18z"/>
<path d="M23479 2844 c-68 -21 -122 -84 -151 -176 -32 -103 -32 -282 -1 -383
26 -81 76 -148 132 -171 84 -37 211 -14 267 48 91 100 117 355 55 534 -47 131
-166 190 -302 148z m151 -93 c14 -9 36 -39 50 -67 23 -46 25 -59 25 -204 0
-127 -3 -164 -18 -203 -25 -64 -69 -97 -131 -97 -100 0 -148 96 -149 294 0
127 19 207 59 255 42 50 109 59 164 22z"/>
<path d="M24098 2847 c-26 -8 -62 -25 -81 -40 -39 -30 -77 -102 -77 -147 0
-29 2 -30 43 -30 42 0 42 1 60 51 24 66 60 89 141 89 53 0 61 -3 93 -35 34
-34 35 -37 31 -103 -5 -91 -30 -125 -228 -306 -155 -142 -160 -149 -160 -187
l0 -39 244 0 c209 0 247 2 260 16 18 17 18 20 10 52 -6 22 -8 22 -193 22
l-186 1 80 71 c235 211 280 276 273 397 -4 85 -36 139 -100 170 -56 27 -149
35 -210 18z"/>
<path d="M24978 2844 c-74 -23 -132 -91 -140 -164 -3 -31 0 -35 22 -37 47 -4
67 6 73 35 14 70 88 109 176 92 62 -11 94 -47 94 -104 0 -79 -45 -123 -133
-130 -55 -4 -55 -4 -58 -40 -2 -20 0 -36 5 -37 4 0 31 -3 58 -5 105 -10 161
-66 152 -153 -9 -81 -60 -122 -150 -122 -93 0 -152 40 -163 113 -6 37 -8 38
-49 38 -23 0 -44 -2 -47 -5 -11 -12 14 -101 38 -137 75 -108 294 -125 404 -31
110 94 77 296 -53 328 -33 9 -35 21 -4 30 75 24 119 135 86 222 -36 97 -182
147 -311 107z"/>
<path d="M25615 2845 c-72 -19 -127 -81 -157 -176 -32 -104 -32 -283 -1 -384
41 -128 115 -188 234 -187 173 1 254 127 252 393 -1 97 -5 127 -27 189 -31 92
-80 144 -150 165 -59 18 -85 18 -151 0z m154 -100 c52 -45 66 -100 66 -270 0
-122 -3 -159 -18 -198 -25 -64 -69 -97 -131 -97 -100 0 -148 96 -149 294 0
137 20 215 68 263 29 29 40 33 83 33 39 0 57 -6 81 -25z"/>
<path d="M26228 2847 c-88 -25 -143 -88 -155 -178 l-6 -39 44 0 c44 0 44 0 62
51 24 65 60 89 139 89 49 0 62 -4 89 -28 55 -49 55 -145 0 -226 -17 -24 -102
-109 -191 -190 -145 -134 -160 -150 -160 -181 0 -21 6 -35 16 -39 9 -3 123 -6
255 -6 184 0 239 3 240 13 1 6 2 26 2 42 l1 30 -188 5 -189 5 123 109 c194
174 236 239 228 359 -5 82 -38 135 -101 166 -56 27 -148 35 -209 18z"/>
<path d="M26848 2847 c-26 -8 -62 -25 -81 -40 -39 -30 -77 -102 -77 -147 0
-29 2 -30 43 -30 42 0 42 1 60 51 24 66 60 89 141 89 53 0 61 -3 93 -35 34
-34 35 -37 31 -103 -5 -92 -30 -125 -228 -307 -157 -143 -161 -148 -158 -184
l3 -36 242 -2 c134 -1 249 0 257 3 9 3 13 19 12 42 l-1 37 -189 5 -189 5 123
109 c194 174 236 239 228 359 -5 82 -38 135 -102 167 -57 27 -145 34 -208 17z"/>
<path d="M13531 2698 c-6 -84 -14 -174 -17 -200 l-6 -48 42 0 c26 0 53 8 69
20 60 42 154 46 217 9 52 -31 75 -112 54 -189 -21 -78 -69 -112 -156 -111 -82
1 -139 38 -150 98 -6 32 -8 33 -55 33 -54 0 -55 -2 -38 -63 25 -91 121 -149
249 -150 93 0 159 29 207 91 89 116 54 307 -67 369 -82 42 -208 35 -263 -15
-19 -17 -19 -16 -14 33 4 28 9 80 12 118 5 53 10 67 23 67 9 1 78 1 152 0 74
0 140 3 146 7 5 5 10 24 10 43 l-1 35 -201 3 -201 2 -12 -152z"/>
<path d="M14720 2805 l0 -45 210 0 210 0 -160 -320 c-88 -176 -160 -324 -160
-328 0 -12 88 -9 99 3 5 6 80 156 165 334 118 245 156 334 156 363 l0 38 -260
0 -260 0 0 -45z"/>
<path d="M17066 2811 c-33 -33 -91 -67 -148 -85 -14 -4 -18 -16 -18 -51 0 -44
1 -45 28 -39 46 11 94 33 129 60 l33 25 2 -308 3 -308 48 0 47 -1 0 373 0 373
-43 0 c-37 0 -48 -6 -81 -39z"/>
<path d="M19195 2691 c-16 -11 -38 -35 -47 -53 -78 -145 116 -287 239 -175 60
55 62 153 4 210 -27 28 -38 32 -98 35 -56 2 -74 -1 -98 -17z"/>
<path d="M2300 2303 c-8 -4 -49 -38 -90 -76 -41 -39 -102 -88 -134 -109 -33
-21 -62 -40 -64 -42 -2 -3 15 -32 39 -65 56 -79 56 -124 2 -188 -103 -121
-163 -240 -163 -324 l0 -29 189 0 190 0 -1 73 c-1 93 23 173 69 234 44 58 39
54 183 151 63 42 136 98 162 123 50 50 95 126 81 139 -4 5 -33 16 -63 25 -293
88 -361 103 -400 88z"/>
</g>
</svg>
