<?xml version="1.0" standalone="no"?>
<!DOCTYPE svg PUBLIC "-//W3C//DTD SVG 20010904//EN"
 "http://www.w3.org/TR/2001/REC-SVG-20010904/DTD/svg10.dtd">
<svg version="1.0" xmlns="http://www.w3.org/2000/svg"
 width="3780.000000pt" height="720.000000pt" viewBox="0 0 3780.000000 720.000000"
 preserveAspectRatio="xMidYMid meet">

<g transform="translate(0.000000,720.000000) scale(0.100000,-0.100000)"
fill="#000000" stroke="none">
<path d="M4446 6553 c38 -165 171 -262 439 -322 242 -54 300 -71 354 -107 115
-77 182 -174 189 -275 17 -232 -262 -398 -734 -437 -155 -13 -225 -1 -304 52
-85 57 -95 62 -162 75 -73 15 -151 2 -268 -45 -76 -31 -100 -36 -230 -44 -179
-12 -219 -22 -266 -69 -42 -42 -67 -93 -117 -243 -48 -143 -66 -262 -46 -303
8 -17 22 -29 31 -29 21 2 17 -9 -50 -126 -67 -115 -102 -184 -102 -199 0 -8
70 -11 235 -11 l235 0 31 43 c17 23 65 100 107 171 118 198 184 261 299 285
105 22 321 -40 373 -106 11 -14 19 -31 17 -37 -7 -22 -75 -27 -201 -13 -143
15 -211 9 -258 -25 -38 -27 -35 -42 12 -63 40 -18 125 -18 250 1 l45 7 -20
-22 c-29 -33 -76 -50 -215 -77 -142 -28 -172 -37 -218 -72 -64 -47 -73 -72
-70 -208 2 -100 0 -127 -16 -162 -11 -24 -24 -41 -30 -39 -6 2 -30 43 -54 91
-61 123 -66 125 -338 129 -260 3 -277 0 -298 -53 -21 -52 -20 -85 2 -122 19
-33 85 -70 147 -84 22 -5 285 -9 585 -9 424 0 554 -3 583 -13 28 -10 83 -59
205 -184 185 -189 207 -215 190 -235 -17 -21 -60 -15 -113 17 -47 27 -79 55
-227 196 l-60 57 -181 -7 c-282 -12 -863 -15 -952 -6 -179 19 -250 44 -304
106 -60 68 -75 116 -76 239 0 121 11 155 80 240 37 45 71 107 81 148 6 27 5
28 -22 21 -188 -46 -410 -211 -526 -389 -114 -177 -202 -423 -225 -631 -8 -67
-9 -70 -45 -87 -21 -10 -99 -30 -175 -43 -185 -34 -243 -53 -365 -120 -307
-170 -417 -281 -593 -599 -112 -204 -169 -255 -282 -255 -69 0 -78 5 -98 53
-36 88 -13 150 105 281 103 113 147 201 156 308 11 132 -37 223 -143 274 -53
24 -70 27 -244 34 -180 7 -191 9 -246 36 -32 16 -62 31 -67 33 -13 5 1 -134
19 -189 22 -66 67 -115 138 -150 95 -46 136 -48 245 -11 61 21 107 31 135 29
l42 -3 -2 -48 c-2 -61 -30 -108 -136 -225 -96 -105 -134 -173 -149 -264 -34
-200 142 -344 348 -283 102 30 179 113 294 319 35 61 83 143 108 181 55 83
180 210 241 244 l44 24 -7 -43 c-4 -24 -20 -100 -37 -169 -82 -344 -172 -515
-328 -620 -59 -40 -181 -90 -269 -111 -61 -14 -76 -31 -126 -146 -18 -44 -55
-124 -81 -179 -110 -232 -139 -294 -171 -373 -19 -46 -34 -87 -34 -93 0 -5 94
-9 235 -9 l235 0 -6 218 c-7 231 -1 279 47 373 l18 37 113 7 c224 13 412 60
569 141 173 89 300 210 434 409 42 63 85 119 94 125 22 11 80 -2 123 -28 46
-29 85 -72 163 -182 115 -163 136 -178 293 -211 101 -22 442 -40 442 -24 0 5
-24 94 -54 199 -105 369 -140 538 -134 664 3 92 16 112 69 112 70 0 129 -108
183 -335 53 -220 53 -219 108 -360 85 -216 145 -321 222 -384 71 -58 182 -170
222 -224 47 -63 84 -164 84 -226 0 -49 -35 -173 -69 -244 -15 -31 -25 -59 -23
-62 9 -9 752 -5 752 3 0 5 -104 213 -230 463 -486 958 -495 978 -482 991 20
20 142 -5 222 -45 85 -44 140 -84 302 -224 70 -60 148 -119 174 -132 62 -31
117 -31 151 0 14 13 130 146 258 294 254 295 381 425 414 425 23 0 46 -31 55
-75 9 -42 -28 -179 -63 -234 -39 -60 -167 -186 -256 -252 -89 -66 -125 -99
-125 -116 0 -26 82 -101 148 -136 37 -19 128 -54 202 -77 373 -116 543 -262
610 -526 15 -59 20 -110 20 -216 l0 -138 321 0 320 0 -6 23 c-12 37 -158 314
-350 662 -94 169 -178 312 -385 655 -128 212 -303 502 -390 645 -86 143 -263
436 -393 650 -129 215 -301 498 -380 630 -80 132 -143 243 -141 247 3 5 27 8
54 8 79 0 366 39 485 66 133 31 242 73 312 121 59 40 155 138 203 208 75 109
130 266 130 375 0 131 -70 290 -175 396 -123 126 -265 178 -580 214 -341 40
-480 82 -584 175 -46 42 -53 43 -45 8z"/>
<path d="M2435 5883 c-10 -53 -38 -104 -116 -214 -96 -134 -119 -187 -119
-275 0 -56 5 -81 26 -122 50 -100 188 -194 367 -248 96 -29 315 -64 404 -64
l61 0 16 43 c22 61 86 254 86 260 0 2 -62 7 -137 11 -159 7 -314 28 -393 52
-56 16 -150 62 -182 87 -31 25 -23 103 22 222 47 124 51 180 17 239 -29 52
-43 55 -52 9z"/>
<path d="M35475 4518 c-11 -6 -89 -67 -172 -135 -156 -127 -172 -147 -159
-199 9 -33 60 -56 95 -42 26 10 246 183 314 247 28 27 37 43 37 68 0 60 -61
92 -115 61z"/>
<path d="M7890 4375 c-47 -9 -109 -31 -165 -59 -170 -84 -288 -232 -341 -431
-27 -101 -28 -422 -1 -510 50 -162 174 -316 312 -388 126 -64 208 -82 385 -81
174 0 237 12 355 69 126 60 205 147 205 224 0 33 -7 49 -34 79 -30 32 -40 37
-78 37 -40 0 -52 -6 -116 -62 -98 -85 -155 -105 -302 -109 -176 -5 -284 27
-379 112 -102 91 -131 173 -131 369 0 196 29 286 126 393 102 114 249 155 412
117 130 -31 203 -87 229 -175 24 -84 39 -107 78 -120 84 -28 148 18 160 114
11 85 1 307 -15 339 -29 60 -112 74 -175 31 l-38 -25 -69 31 c-124 55 -275 71
-418 45z"/>
<path d="M15090 4375 c-47 -9 -109 -31 -165 -59 -170 -84 -288 -232 -341 -431
-27 -101 -28 -422 -1 -510 50 -162 174 -316 312 -388 126 -64 208 -82 385 -81
174 0 237 12 355 69 126 60 205 147 205 224 0 33 -7 49 -34 79 -30 32 -40 37
-78 37 -40 0 -52 -6 -116 -62 -98 -85 -155 -105 -302 -109 -176 -5 -284 27
-379 112 -102 91 -131 173 -131 369 0 196 29 286 126 393 102 114 249 155 412
117 130 -31 203 -87 229 -175 24 -84 39 -107 78 -120 84 -28 148 18 160 114
11 85 1 307 -15 339 -29 60 -112 74 -175 31 l-38 -25 -69 31 c-124 55 -275 71
-418 45z"/>
<path d="M23713 4375 c-190 -41 -390 -210 -474 -400 -65 -147 -82 -379 -40
-539 49 -184 191 -377 330 -447 80 -41 82 -32 -23 -133 -76 -73 -96 -98 -101
-128 -10 -52 19 -107 68 -131 37 -19 39 -19 155 6 177 39 178 39 255 39 53 0
98 -8 171 -31 142 -45 230 -38 344 24 133 72 160 177 63 242 -47 32 -68 29
-155 -17 -41 -22 -88 -40 -104 -40 -16 0 -56 11 -90 25 -34 14 -96 31 -137 38
l-76 13 73 17 c337 78 568 407 544 777 -7 119 -27 202 -70 293 -136 292 -441
455 -733 392z m295 -266 c291 -143 363 -575 138 -826 -196 -217 -493 -183
-658 77 -77 120 -96 324 -45 469 53 151 171 270 306 308 76 21 182 10 259 -28z"/>
<path d="M33795 4375 c-252 -56 -461 -276 -521 -548 -24 -106 -21 -291 5 -392
117 -446 588 -668 959 -451 159 94 280 254 334 443 32 113 32 324 0 438 -103
360 -444 584 -777 510z m289 -263 c85 -40 172 -126 216 -211 101 -200 71 -460
-71 -615 -149 -163 -344 -191 -518 -75 -157 105 -237 298 -210 510 11 92 29
142 74 214 121 192 325 263 509 177z"/>
<path d="M36660 4374 c-152 -33 -282 -132 -342 -261 -28 -60 -32 -78 -32 -153
0 -74 4 -93 31 -151 77 -166 177 -222 517 -293 247 -52 315 -98 303 -204 -4
-39 -12 -53 -47 -84 -68 -61 -136 -82 -265 -82 -83 -1 -124 4 -169 18 -85 28
-147 73 -169 121 -44 98 -52 109 -89 123 -53 21 -115 0 -143 -48 -18 -31 -20
-52 -20 -180 0 -109 4 -152 15 -174 36 -70 114 -89 175 -42 l34 26 75 -30
c119 -48 213 -64 341 -57 170 9 292 55 392 149 72 69 104 139 111 243 8 133
-31 231 -127 318 -73 66 -180 106 -410 152 -213 43 -276 73 -306 148 -21 52
-14 92 25 139 98 119 348 130 469 21 32 -30 47 -53 64 -107 27 -83 57 -111
122 -111 52 0 90 30 105 84 5 20 10 97 10 171 0 158 -15 207 -69 230 -38 15
-96 8 -123 -16 -18 -17 -21 -17 -74 9 -110 54 -269 70 -404 41z"/>
<path d="M9000 4349 c-128 -25 -137 -195 -12 -226 21 -6 79 -11 128 -12 49 -1
90 -4 92 -6 2 -1 -81 -213 -184 -469 l-188 -466 -34 0 c-50 0 -98 -27 -116
-65 -20 -41 -20 -56 -2 -100 26 -61 46 -65 313 -65 218 0 241 2 270 20 21 12
35 31 42 56 13 48 5 82 -27 116 -25 27 -44 33 -130 41 -23 3 -44 6 -46 8 -2 2
8 34 23 72 l26 67 294 -2 293 -3 24 -64 c13 -35 24 -66 24 -70 0 -3 -28 -7
-63 -9 -100 -5 -147 -44 -147 -123 0 -42 30 -85 69 -101 28 -11 458 -13 495
-2 11 3 31 16 44 27 l22 20 23 -20 c12 -11 30 -23 39 -26 36 -13 524 -10 549
3 41 21 59 52 59 102 0 38 -6 54 -28 79 -26 29 -36 32 -120 42 l-92 11 0 148
0 148 118 0 c117 0 118 0 167 -34 96 -64 253 -241 375 -423 l55 -82 85 -2 c47
-1 96 0 110 1 33 3 80 27 87 46 4 11 13 8 39 -16 l35 -30 187 -2 c103 -1 198
-1 212 -2 100 -1 160 42 160 112 0 84 -47 120 -163 124 -43 2 -77 7 -77 13 0
6 -1 166 -2 357 -2 190 0 344 4 342 5 -4 135 -204 523 -813 l80 -126 123 -3
122 -3 0 586 0 585 28 5 c94 19 140 85 111 160 -10 27 -26 44 -54 59 -37 19
-56 21 -260 21 -203 0 -223 -2 -255 -20 -49 -30 -69 -83 -49 -138 19 -56 57
-76 156 -83 43 -4 79 -7 81 -9 1 -1 1 -161 0 -355 l-3 -353 -305 479 -306 479
-134 2 c-181 2 -237 -8 -272 -47 -38 -41 -39 -106 -3 -148 21 -26 93 -56 122
-51 5 1 17 1 28 0 20 -1 20 -7 18 -468 l-2 -468 -42 -7 c-25 -5 -54 -19 -70
-34 -25 -24 -29 -25 -35 -10 -10 25 -57 46 -106 46 l-43 1 -65 97 c-35 53
-105 139 -155 191 -82 85 -88 95 -71 105 179 105 265 257 238 419 -30 172
-152 298 -338 349 -74 20 -103 21 -439 22 -326 1 -363 -1 -392 -17 -65 -35
-82 -130 -33 -182 23 -25 102 -49 142 -43 l23 3 3 -467 2 -467 -35 -6 c-19 -3
-51 -8 -71 -11 -20 -3 -47 -16 -61 -30 l-24 -24 -22 26 c-17 19 -36 27 -77 32
l-55 7 -236 584 c-131 321 -243 587 -250 591 -17 11 -514 10 -569 -1z m2086
-270 c56 -28 89 -66 105 -120 25 -81 -39 -155 -181 -211 -46 -18 -81 -22 -212
-26 l-158 -4 0 196 0 195 128 3 c173 4 262 -5 318 -33z m-1541 -286 l93 -228
-94 -3 c-51 -1 -137 -1 -192 0 l-99 3 95 232 c53 128 97 231 100 229 2 -3 46
-108 97 -233z"/>
<path d="M13351 4349 c-61 -12 -88 -33 -102 -79 -16 -54 4 -107 51 -135 30
-17 54 -20 185 -22 83 -1 152 -2 155 -3 3 0 5 -209 5 -465 0 -458 0 -465 -20
-465 -158 0 -286 -10 -318 -25 -35 -16 -67 -64 -67 -99 0 -35 30 -85 58 -100
46 -23 887 -24 932 -1 81 42 77 166 -7 202 -29 12 -75 16 -185 17 -82 0 -148
4 -148 9 0 7 0 897 0 920 0 9 31 11 129 9 144 -3 201 7 237 43 54 54 38 145
-31 180 -38 19 -62 20 -435 21 -217 1 -415 -2 -439 -7z"/>
<path d="M16075 4350 c-54 -8 -82 -25 -100 -60 -19 -37 -19 -73 0 -110 20 -38
63 -60 131 -67 l54 -6 0 -462 0 -463 -22 -6 c-13 -3 -36 -6 -51 -6 -96 0 -154
-88 -112 -170 31 -60 16 -59 674 -62 l601 -3 0 213 c0 228 -6 264 -51 296 -14
9 -43 16 -72 16 -85 0 -117 -56 -117 -207 0 -72 -2 -81 -17 -78 -10 2 -147 4
-305 4 l-288 1 0 175 0 175 105 0 105 0 0 -32 c0 -18 5 -50 11 -71 26 -96 176
-104 215 -12 18 44 19 402 1 454 -16 46 -54 72 -105 73 -74 1 -122 -53 -122
-137 l0 -35 -105 0 -105 0 0 170 0 170 279 0 279 0 4 -102 c4 -112 17 -145 64
-166 65 -30 134 -4 158 60 14 36 16 78 14 248 l-3 205 -540 1 c-297 0 -558 -2
-580 -6z"/>
<path d="M17515 4351 c-55 -10 -82 -26 -101 -63 -21 -40 -13 -102 16 -133 23
-25 102 -49 142 -43 l23 3 3 -466 2 -467 -22 -6 c-13 -3 -36 -6 -51 -6 -46 0
-94 -26 -112 -61 -31 -59 -5 -138 52 -160 37 -14 527 -13 554 1 41 21 59 52
59 102 0 38 -6 54 -28 79 -26 29 -36 32 -120 42 l-92 11 0 148 0 148 118 0
c117 0 118 0 167 -34 96 -64 253 -241 375 -423 l55 -82 85 -2 c111 -2 130 0
162 17 35 18 51 48 51 97 0 75 -44 117 -125 117 l-43 1 -65 97 c-35 53 -105
139 -155 191 -82 85 -88 95 -71 105 179 105 265 257 238 419 -30 172 -152 298
-338 348 -72 20 -109 22 -409 24 -181 2 -348 0 -370 -4z m771 -272 c56 -28 89
-66 105 -120 25 -81 -39 -155 -181 -211 -46 -18 -81 -22 -212 -26 l-158 -4 0
196 0 195 128 3 c173 4 262 -5 318 -33z"/>
<path d="M19111 4349 c-61 -12 -88 -33 -102 -79 -16 -54 4 -107 51 -135 30
-17 54 -20 185 -22 83 -1 152 -2 155 -3 3 0 5 -209 5 -465 0 -458 0 -465 -20
-465 -158 0 -286 -10 -318 -25 -35 -16 -67 -64 -67 -99 0 -35 30 -85 58 -100
46 -23 887 -24 932 -1 81 42 77 166 -7 202 -29 12 -75 16 -185 17 -82 0 -148
4 -148 9 0 7 0 897 0 920 0 9 31 11 129 9 144 -3 201 7 237 43 54 54 38 145
-31 180 -38 19 -62 20 -435 21 -217 1 -415 -2 -439 -7z"/>
<path d="M20520 4349 c-128 -25 -137 -195 -12 -226 21 -6 79 -11 128 -12 49
-1 90 -4 92 -6 2 -1 -81 -213 -184 -469 l-188 -466 -34 0 c-50 0 -98 -27 -116
-65 -20 -41 -20 -56 -2 -100 26 -61 46 -65 313 -65 218 0 241 2 270 20 21 12
35 31 42 56 13 48 5 82 -27 116 -25 27 -44 33 -130 41 -23 3 -44 6 -46 8 -2 2
8 34 23 72 l26 67 294 -2 293 -3 24 -64 c13 -35 24 -66 24 -70 0 -3 -28 -7
-63 -9 -100 -5 -147 -44 -147 -123 0 -42 30 -85 69 -101 32 -13 468 -12 502 1
77 29 91 146 25 200 -9 7 -39 16 -68 20 l-53 6 -236 584 c-131 321 -243 587
-250 591 -17 11 -514 10 -569 -1z m545 -556 l93 -228 -94 -3 c-51 -1 -137 -1
-192 0 l-99 3 95 232 c53 128 97 231 100 229 2 -3 46 -108 97 -233z"/>
<path d="M24712 4350 c-69 -10 -99 -31 -113 -79 -20 -67 14 -134 74 -146 72
-15 65 27 69 -418 4 -459 2 -450 97 -578 108 -146 272 -229 451 -229 149 0
265 47 378 154 57 54 81 87 112 150 53 108 60 178 60 580 -1 341 -2 336 49
336 13 0 38 15 57 34 28 28 34 41 34 78 0 24 -7 54 -16 66 -33 47 -65 54 -263
58 -228 4 -286 -4 -323 -46 -22 -23 -28 -40 -28 -74 0 -84 68 -128 188 -122
l52 3 0 -384 c0 -430 1 -422 -72 -495 -70 -70 -126 -93 -233 -93 -75 0 -97 4
-135 24 -58 30 -116 85 -143 136 -21 39 -22 49 -22 424 l0 384 77 2 c95 3 136
24 157 79 13 33 13 44 0 80 -24 69 -58 80 -274 82 -99 1 -204 -2 -233 -6z"/>
<path d="M26311 4349 c-61 -12 -88 -33 -102 -79 -16 -54 4 -107 51 -135 30
-17 54 -20 185 -22 83 -1 152 -2 155 -3 3 0 5 -209 5 -465 0 -458 0 -465 -20
-465 -158 0 -286 -10 -318 -25 -35 -16 -67 -64 -67 -99 0 -35 30 -85 58 -100
46 -23 887 -24 932 -1 81 42 77 166 -7 202 -29 12 -75 16 -185 17 -82 0 -148
4 -148 9 0 7 0 897 0 920 0 9 31 11 129 9 144 -3 201 7 237 43 54 54 38 145
-31 180 -38 19 -62 20 -435 21 -217 1 -415 -2 -439 -7z"/>
<path d="M27535 4349 c-68 -11 -105 -51 -105 -113 0 -59 34 -99 95 -115 24 -6
48 -11 52 -10 5 1 17 1 28 0 20 -1 20 -7 18 -468 l-2 -468 -43 -7 c-61 -11
-98 -53 -98 -114 0 -39 5 -51 34 -80 l34 -34 189 -2 c103 -1 199 -1 213 -2
100 -1 160 42 160 112 0 84 -47 120 -163 124 -43 2 -77 7 -77 13 0 6 -1 166
-2 357 -2 190 0 344 4 342 5 -4 135 -204 523 -813 l80 -126 123 -3 122 -3 0
586 0 585 28 5 c94 19 138 82 111 158 -10 30 -24 46 -54 61 -37 19 -56 21
-260 21 -203 0 -223 -2 -255 -20 -49 -30 -69 -83 -49 -138 19 -56 57 -76 156
-83 43 -4 79 -7 81 -9 1 -1 1 -161 0 -355 l-3 -353 -305 479 -306 479 -139 1
c-77 1 -162 -2 -190 -7z"/>
<path d="M28998 4353 c-17 -4 -18 -25 -18 -251 0 -146 5 -263 11 -286 17 -60
49 -86 106 -86 101 0 123 43 123 239 l0 140 114 3 c62 2 121 2 130 0 14 -3 16
-48 16 -470 l0 -467 -108 -1 c-132 -2 -176 -17 -197 -68 -19 -45 -19 -70 0
-106 30 -59 39 -60 432 -60 321 0 361 2 383 17 40 27 49 45 50 93 0 90 -44
118 -197 125 -60 3 -111 5 -115 5 -5 0 -8 209 -8 464 l0 465 103 3 c56 2 116
2 134 0 l32 -3 3 -159 c3 -155 4 -160 28 -185 72 -72 181 -36 201 67 4 24 8
149 9 279 0 206 -2 238 -16 243 -17 7 -1190 6 -1216 -1z"/>
<path d="M30475 4350 c-54 -8 -82 -25 -100 -60 -19 -37 -19 -73 0 -110 20 -38
63 -60 131 -67 l54 -6 0 -462 0 -463 -22 -6 c-13 -3 -36 -6 -51 -6 -96 0 -154
-88 -112 -170 31 -60 16 -59 674 -62 l601 -3 0 213 c0 228 -6 264 -51 296 -14
9 -43 16 -72 16 -85 0 -117 -56 -117 -207 0 -72 -2 -81 -17 -78 -10 2 -147 4
-305 4 l-288 1 0 175 0 175 105 0 105 0 0 -32 c0 -18 5 -50 11 -71 26 -96 176
-104 215 -12 18 44 19 402 1 454 -16 46 -54 72 -105 73 -74 1 -122 -53 -122
-137 l0 -35 -105 0 -105 0 0 170 0 170 279 0 279 0 4 -102 c4 -112 17 -145 64
-166 65 -30 134 -4 158 60 14 36 16 78 14 248 l-3 205 -540 1 c-297 0 -558 -2
-580 -6z"/>
<path d="M31915 4351 c-55 -10 -82 -26 -101 -63 -21 -40 -13 -102 16 -133 23
-25 102 -49 142 -43 l23 3 3 -466 2 -467 -22 -6 c-13 -3 -36 -6 -51 -6 -46 0
-94 -26 -112 -61 -31 -59 -5 -138 52 -160 37 -14 527 -13 554 1 41 21 59 52
59 102 0 38 -6 54 -28 79 -26 29 -36 32 -120 42 l-92 11 0 148 0 148 118 0
c117 0 118 0 167 -34 96 -64 253 -241 375 -423 l55 -82 85 -2 c111 -2 130 0
162 17 35 18 51 48 51 97 0 75 -44 117 -125 117 l-43 1 -65 97 c-35 53 -105
139 -155 191 -82 85 -88 95 -71 105 179 105 265 257 238 419 -30 172 -152 298
-338 348 -72 20 -109 22 -409 24 -181 2 -348 0 -370 -4z m771 -272 c56 -28 89
-66 105 -120 25 -81 -39 -155 -181 -211 -46 -18 -81 -22 -212 -26 l-158 -4 0
196 0 195 128 3 c173 4 262 -5 318 -33z"/>
<path d="M2300 2303 c-8 -4 -49 -38 -90 -76 -41 -39 -102 -88 -134 -109 -33
-21 -62 -40 -64 -42 -2 -3 15 -32 39 -65 56 -79 56 -124 2 -188 -103 -121
-163 -240 -163 -324 l0 -29 189 0 190 0 -1 73 c-1 93 23 173 69 234 44 58 39
54 183 151 63 42 136 98 162 123 50 50 95 126 81 139 -4 5 -33 16 -63 25 -293
88 -361 103 -400 88z"/>
</g>
</svg>
